<svg width="16" height="15" fill="none" xmlns="http://www.w3.org/2000/svg"><path d="M14.994 14.621c-.28-1.242-1.887-1.848-2.442-2.043-.67-.169-1.35-.3-2.035-.391a2.067 2.067 0 01-.94-.434 8.226 8.226 0 01-.063-1.926c.172-.27.32-.554.445-.848.144-.485.253-.98.328-1.48 0 0 .32 0 .434-.562.15-.423.246-.863.29-1.309-.024-.449-.27-.437-.27-.437.186-.65.276-1.324.265-2a3.518 3.518 0 00-7 0c-.008.676.08 1.35.262 2 0 0-.246-.012-.27.438.043.446.14.886.29 1.309.108.563.433.563.433.563.075.5.185.995.328 1.48.125.294.274.578.445.848a8.226 8.226 0 01-.063 1.926 2.067 2.067 0 01-.94.434 18.2 18.2 0 00-2.036.391c-.555.2-2.16.8-2.442 2.043a.312.312 0 00.31.379h14.371a.31.31 0 00.3-.381z" fill="#000"/></svg>