<svg width="68" height="68" fill="none" xmlns="http://www.w3.org/2000/svg"><g clip-path="url(#clip0)"><path d="M31.608 46.217a2.447 2.447 0 01-1.879-.854l-12.9-14.01a2.54 2.54 0 113.759-3.417l11.105 12.045L62.447 9.313a2.537 2.537 0 013.588 3.585l-32.633 32.55a2.326 2.326 0 01-1.794.769z" fill="#4DCFE0"/><path d="M34 68a34 34 0 110-68 2.517 2.517 0 012.563 2.563A2.516 2.516 0 0134 5.125 28.874 28.874 0 1062.875 34a2.565 2.565 0 013.555-2.414A2.565 2.565 0 0168 34a34.09 34.09 0 01-34 34z" fill="#1185E0"/></g><defs><clipPath id="clip0"><path fill="#fff" d="M0 0h68v68H0z"/></clipPath></defs></svg>